Coordinates
version=1
nRows=22
nColumns=24
inDegrees=yes

Units are S.I. units (second, meters, Newtons, ...)
Angles are in degrees.

endheader
time	pelvis_tilt	pelvis_list	pelvis_rotation	pelvis_tx	pelvis_ty	pelvis_tz	hip_flexion_r	hip_adduction_r	hip_rotation_r	knee_angle_r	ankle_angle_r	subtalar_angle_r	mtp_angle_r	hip_flexion_l	hip_adduction_l	hip_rotation_l	knee_angle_l	ankle_angle_l	subtalar_angle_l	mtp_angle_l	lumbar_extension	lumbar_bending	lumbar_rotation
      3.74000000	     -9.68542196	      1.81987824	      3.12220471	     -1.64770780	     -0.02637512	     -0.73005745	     34.03861932	     -5.35900263	    -11.72648813	    -12.96224816	     -4.42671988	     -3.33073893	     11.41050288	     -6.35038305	      1.97779856	    -10.95499061	    -11.91488004	     10.92647956	      6.98144826	      5.94273667	      6.27634790	      0.24157400	     -8.17514424
      3.74500000	     -9.71072948	      1.66150176	      3.17748745	     -1.64098229	     -0.02699228	     -0.72917298	     34.06428870	     -5.20150710	    -11.64161589	    -13.64779122	     -4.78618430	     -3.89041688	     11.14252694	     -6.40837249	      1.63138095	    -10.74091367	    -12.56109376	     10.63493953	      7.03031544	      5.87442585	      6.41844454	      0.45594463	     -8.31013335
      3.75000000	     -9.72833686	      1.55418144	      3.07212818	     -1.63429984	     -0.02761437	     -0.72792901	     34.11043158	     -4.95289589	    -11.14471331	    -14.36322630	     -5.22677232	     -4.76394590	     10.20895256	     -6.46002777	      1.33051540	    -10.79317861	    -13.25308097	     10.32814458	      7.20476566	      5.66644713	      6.53419585	      0.61886157	     -8.24700547
      3.75500000	     -9.78932371	      1.34443571	      2.97090967	     -1.62746137	     -0.02821587	     -0.72669707	     34.18856761	     -4.61957592	    -10.80663410	    -15.10193101	     -5.61435892	     -5.45624918	      8.85639005	     -6.44262205	      0.92201955	    -10.78336222	    -13.99345261	     10.02084507	      7.30581151	      5.43138881	      6.72654819	      0.89704929	     -8.16255974
      3.76000000	     -9.84184992	      1.13785214	      2.98073652	     -1.62069758	     -0.02867639	     -0.72561501	     34.24313552	     -4.38046978	    -10.70986281	    -15.80720758	     -6.11612320	     -6.10800069	      8.30541131	     -6.37693554	      0.51305896	    -10.64072782	    -14.78800438	      9.57129645	      7.29493578	      5.31740933	      6.90043695	      1.15355239	     -8.29016469
      3.76500000	     -9.92842496	      0.86323812	      2.89719527	     -1.61381521	     -0.02909720	     -0.72446530	     34.32094574	     -4.02985812	    -10.57873243	    -16.46571165	     -6.64264797	     -6.70780914	      7.87255537	     -6.26861882	      0.04634226	    -10.52878017	    -15.60839895	      9.07788971	      7.21861221	      5.20505202	      7.12916491	      1.51140654	     -8.25051452
      3.77000000	    -10.01804880	      0.61175196	      2.78762630	     -1.60698985	     -0.02943141	     -0.72319597	     34.41087495	     -3.67520818	    -10.41148364	    -17.12422899	     -7.13457971	     -7.39644234	      7.37731782	     -6.11364415	     -0.40425376	    -10.50003877	    -16.49093800	      8.49788174	      7.14704581	      5.07055782	      7.34753720	      1.83482733	     -8.20663064
      3.77500000	    -10.13415183	      0.38602609	      2.53239948	     -1.60026987	     -0.02979385	     -0.72160403	     34.56762710	     -3.22348899	     -9.91506539	    -17.85709797	     -7.36653063	     -8.01285960	      5.62942497	     -5.88542781	     -0.85178401	    -10.78194277	    -17.47826666	      7.97242638	      7.26889130	      4.86513731	      7.56421544	      2.13775184	     -8.06739498
      3.78000000	    -10.20562347	      0.10336902	      2.47296826	     -1.59351973	     -0.02986201	     -0.72041471	     34.58772618	     -2.87973325	     -9.86154193	    -18.44115464	     -7.72944425	     -8.55169740	      5.34507123	     -5.64692343	     -1.33643622	    -10.63783543	    -18.49699717	      7.21235037	      7.04555288	      4.73758508	      7.74768648	      2.49638227	     -8.12688096
      3.78500000	    -10.31237134	     -0.16469086	      2.31205274	     -1.58669580	     -0.02992328	     -0.71901874	     34.63324082	     -2.47272691	     -9.68869673	    -18.99675998	     -7.98101997	     -9.11906023	      5.01604144	     -5.34388661	     -1.81512451	    -10.68371955	    -19.57981582	      6.38353865	      6.84542395	      4.58718800	      7.97490488	      2.83847249	     -8.07447863
      3.79000000	    -10.41389570	     -0.40167059	      2.14830487	     -1.57996974	     -0.02989521	     -0.71760411	     34.65614493	     -2.08398996	     -9.44924401	    -19.53153198	     -8.13112937	     -9.65994650	      4.60559321	     -4.97605128	     -2.27435231	    -10.80140146	    -20.76565739	      5.49070671	      6.64689104	      4.43383000	      8.17516661	      3.15708826	     -8.02412809
      3.79500000	    -10.50448745	     -0.62441450	      1.96473943	     -1.57318524	     -0.02976277	     -0.71617744	     34.62696185	     -1.69229131	     -9.22664820	    -20.01358278	     -8.14869750	    -10.13442358	      4.15228679	     -4.58453018	     -2.72077085	    -10.94792868	    -22.00379175	      4.47511302	      6.38144853	      4.27330114	      8.36968281	      3.47676700	     -7.95703445
      3.80000000	    -10.60988488	     -0.80036228	      1.71980574	     -1.56637923	     -0.02960898	     -0.71454405	     34.60732192	     -1.28738043	     -8.93412561	    -20.52376948	     -7.87572660	    -10.43608908	      2.91225705	     -4.13954411	     -3.14541396	    -11.26081104	    -23.30409059	      3.34031252	      6.13853173	      4.26304072	      8.58011951	      3.72992300	     -7.82981706
      3.80500000	    -10.60372147	     -1.01468068	      1.57726633	     -1.55958052	     -0.02918760	     -0.71316361	     34.36810996	     -0.91865319	     -8.81703952	    -20.84580724	     -7.74226403	    -10.78782187	      2.78283803	     -3.75709056	     -3.58741986	    -11.33336569	    -24.65317232	      2.08359153	      5.66153749	      4.06759122	      8.67228396	      4.03031909	     -7.83247386
      3.81000000	    -10.61265152	     -1.22164190	      1.37823727	     -1.55273107	     -0.02875307	     -0.71171862	     34.11972150	     -0.52689457	     -8.72435469	    -21.12458404	     -7.53389578	    -11.02922873	      2.71987233	     -3.32312029	     -4.03230597	    -11.51862931	    -26.06869646	      0.76895068	      5.17560397	      3.84034502	      8.78715145	      4.33179612	     -7.74626199
      3.81500000	    -10.63690518	     -1.37870670	      1.18263647	     -1.54613280	     -0.02828565	     -0.71025866	     33.87410322	     -0.16254764	     -8.51236984	    -21.35574902	     -7.35722817	    -11.37030717	      2.54813728	     -2.79034271	     -4.41019061	    -11.60328202	    -27.57731077	     -0.64779955	      4.52355393	      3.63406158	      8.87113866	      4.58510885	     -7.66667074
      3.82000000	    -10.65643269	     -1.54215052	      0.98530643	     -1.53951227	     -0.02778976	     -0.70880519	     33.58710019	      0.21038397	     -8.33902929	    -21.53699367	     -7.09956433	    -11.63586573	      2.36893291	     -2.22525600	     -4.79853291	    -11.71115535	    -29.12959134	     -2.12454733	      3.82342490	      3.41819602	      8.96032505	      4.84173486	     -7.58520308
      3.82500000	    -10.66150717	     -1.75346964	      0.77777524	     -1.53280938	     -0.02726893	     -0.70736124	     33.23414541	      0.63411179	     -8.23441432	    -21.64263513	     -6.79311578	    -11.83202630	      2.27540775	     -1.65393891	     -5.24293298	    -11.84197283	    -30.71392059	     -3.59888804	      3.11906090	      3.14567540	      9.05487103	      5.14857730	     -7.48240107
      3.83000000	    -10.70383144	     -1.89160382	      0.60280298	     -1.52645674	     -0.02678354	     -0.70597714	     32.93711165	      0.98228319	     -8.01004923	    -21.75505741	     -6.49468677	    -12.09160249	      1.97601082	     -0.95347323	     -5.57731463	    -11.82524070	    -32.37151018	     -5.13772056	      2.21855654	      2.90510907	      9.13043405	      5.37568911	     -7.44430106
      3.83500000	    -10.73059194	     -2.10483851	      0.41185299	     -1.52008886	     -0.02628917	     -0.70465554	     32.58768448	      1.40213097	     -7.86338758	    -21.80736267	     -6.19978426	    -12.26990946	      1.73237504	     -0.24640381	     -5.98745171	    -11.81808333	    -34.06371671	     -6.58640939	      1.32855244	      2.62012444	      9.19514892	      5.69684350	     -7.35529644
      3.84000000	    -10.73149864	     -2.36981351	      0.19895769	     -1.51367482	     -0.02576403	     -0.70332672	     32.17246046	      1.87832307	     -7.78673037	    -21.79373979	     -5.91656024	    -12.39690042	      1.65031865	      0.44008139	     -6.45687481	    -11.84502699	    -35.76155431	     -7.94576902	      0.48671635	      2.30211314	      9.24304598	      6.06934741	     -7.20969343
      3.84500000	    -10.76060939	     -2.55953460	      0.03365908	     -1.50765043	     -0.02526620	     -0.70211854	     31.82011707	      2.26027468	     -7.62548596	    -21.80855421	     -5.67817334	    -12.61259599	      1.43719758	      1.23847543	     -6.79209846	    -11.69748381	    -37.49958009	     -9.31200880	     -0.57933396	      1.98620662	      9.25658802	      6.36066241	     -7.13907697
